<svg width="38" height="38" viewBox="0 0 38 38" fill="none" xmlns="http://www.w3.org/2000/svg">
<path d="M26 5.79643C26 6.46115 26.5389 7 27.2036 7H30.7964C31.4611 7 32 7.53885 32 8.20357V19.7964C32 20.4611 32.5389 21 33.2036 21H36.7964C37.4611 21 38 21.5389 38 22.2036V36.7964C38 37.4611 37.4611 38 36.7964 38H3.20996C1.4374 38 0 36.5626 0 34.79V3.20996C0 1.4374 1.4374 0 3.20996 0H24.7964C25.4611 0 26 0.538855 26 1.20357V5.79643Z" fill="#2D5551"/>
<path d="M16.4138 7C18.5987 7 20.5627 7.33707 22.306 8.01123C24.0497 8.68537 25.4287 9.68539 26.4442 11.0112C27.4814 12.3146 28 13.9101 28 15.7977H21.015C21.015 14.8315 20.5958 14.0562 19.7572 13.4719C18.9185 12.8652 17.9034 12.5618 16.7118 12.5618C14.9902 12.5618 13.6882 13.0337 12.8056 13.9775C11.9228 14.8989 11.4815 16.2135 11.4815 17.9213V20.0787C11.4815 21.7865 11.9228 23.1124 12.8056 24.0562C13.6882 24.9775 14.9902 25.4382 16.7118 25.4382C17.9034 25.4382 18.9185 25.1573 19.7572 24.5955C20.5958 24.0112 21.015 23.2697 21.015 22.3708H15.851V17.6517H28V30.5955H24.2261L23.4979 28.3034C21.4235 30.1011 18.7089 31 15.3545 31C11.5806 31 8.74483 30 6.84684 28C4.94916 25.9775 4 22.9775 4 19C4 15.0674 5.07036 12.0899 7.21109 10.0674C9.37391 8.02245 12.4414 7 16.4138 7Z" fill="#B9FF78"/>
</svg>
