<svg width="36" height="36" viewBox="0 0 36 36" fill="none" xmlns="http://www.w3.org/2000/svg">
<path fill-rule="evenodd" clip-rule="evenodd" d="M7.32376 29.0442H5.48298C5.07567 29.0442 4.74609 29.3738 4.74609 29.7811V33.4627C4.74609 33.87 5.07568 34.1996 5.48298 34.1996H28.3077C28.5034 34.1996 28.6905 34.1218 28.8287 33.9837C28.9669 33.8455 29.0446 33.6584 29.0446 33.4627V29.7811C29.0446 29.3738 28.715 29.0442 28.3077 29.0442H26.4669V28.6268L28.3034 27.6467C30.1183 26.6781 31.2524 24.787 31.2524 22.7287V7.93646C31.2524 7.68604 31.1243 7.45144 30.9127 7.31615L26.4656 4.46646V2.53645C26.4656 2.12913 26.136 1.79956 25.7287 1.79956H8.05779C7.65192 1.79956 7.32091 2.12914 7.32091 2.53645V29.0426L7.32376 29.0442ZM29.7815 11.408L26.4684 9.28509V26.9575L27.6111 26.3473C28.9467 25.6348 29.7815 24.2431 29.7815 22.729V11.408ZM14.3297 8.42875C13.9958 8.42875 13.7037 8.65328 13.6187 8.97567L11.7679 15.9186C11.7089 16.1403 11.7564 16.3749 11.896 16.5562C12.0356 16.7376 12.2515 16.8441 12.4803 16.8441H14.9068L14.062 25.291C14.0289 25.6234 14.2232 25.9372 14.5369 26.0538C14.8493 26.1704 15.2019 26.0624 15.3962 25.789L23.2643 14.6811C23.424 14.4566 23.4442 14.1615 23.3175 13.9169C23.1909 13.6722 22.939 13.5182 22.6641 13.5182H19.9209L21.0378 9.35447C21.0968 9.13283 21.0507 8.89679 20.9111 8.71544C20.7715 8.5341 20.5556 8.42759 20.3268 8.42759H14.3337L14.3297 8.42875ZM26.4681 6.21666V7.53642L29.7812 9.65928V8.33952L26.4681 6.21666Z" fill="#2D5551"/>
</svg>
