<svg width="24" height="24" viewBox="0 0 24 24" fill="none" xmlns="http://www.w3.org/2000/svg">
<path d="M12.862 2.79112C14.0081 1.96597 15.3375 1.5534 16.8388 1.5534C17.664 1.5534 18.5693 1.77114 19.5549 2.22956C20.5405 2.67652 21.3198 3.20369 21.8928 3.8111C23.0733 5.27803 23.5661 6.98563 23.3942 8.9339C23.2108 10.8822 22.569 12.4064 21.4574 13.4837L12.7589 22.1821C12.5412 22.3999 12.2661 22.503 11.9452 22.503C11.6243 22.503 11.3607 22.3999 11.143 22.1821C11.037 22.0778 10.9538 21.9527 10.8986 21.8146C10.8434 21.6765 10.8173 21.5285 10.8221 21.3799C10.8221 21.059 10.9252 20.784 11.143 20.5662L16.4033 15.3059C16.6898 15.0538 16.6898 14.7902 16.4033 14.5037C16.1168 14.2171 15.8532 14.2171 15.6011 14.5037L10.3408 19.764C10.2347 19.8708 10.1076 19.9545 9.96755 20.0097C9.8275 20.065 9.67751 20.0906 9.52707 20.0849C9.20618 20.0849 8.94259 19.9817 8.72484 19.764C8.61888 19.6597 8.53567 19.5345 8.48044 19.3965C8.42522 19.2584 8.39917 19.1104 8.40395 18.9618C8.40395 18.6409 8.50709 18.3658 8.72484 18.1481L13.9852 12.8877C14.2946 12.6012 14.2946 12.3147 13.9852 12.0282C13.7216 11.7417 13.4694 11.7417 13.1829 12.0282L7.92261 17.3458C7.81534 17.451 7.68805 17.5336 7.54829 17.5888C7.40852 17.6439 7.25912 17.6704 7.10892 17.6667C6.78803 17.6667 6.51298 17.5636 6.27231 17.3458C6.0431 17.1281 5.9285 16.8645 5.9285 16.5436C5.9285 16.2227 6.05456 15.9362 6.30669 15.6841L11.5785 10.4123C11.865 10.1258 11.865 9.86219 11.5785 9.61006C11.292 9.35793 11.0169 9.35793 10.7648 9.61006L5.44716 14.8933C5.19503 15.1225 4.93144 15.2486 4.64493 15.2486C4.32404 15.2486 4.04899 15.134 3.84271 14.8933C3.62496 14.6641 3.51035 14.3891 3.51035 14.0682C3.51035 13.7473 3.62496 13.4837 3.84271 13.2659C7.34959 9.73613 9.51561 7.60449 10.3408 6.81372L14.4207 10.8478C14.8676 11.2718 15.3833 11.4896 16.0137 11.4896C16.8159 11.4896 17.4462 11.1687 17.9161 10.5269C18.237 10.057 18.3516 9.5413 18.2599 8.96828C18.1682 8.39526 17.9275 7.91392 17.5379 7.51281L12.862 2.79112ZM15.2229 10.0456L10.3408 5.15196L2.22679 13.2659C1.26411 12.2918 0.714014 10.8019 0.587949 8.77345C0.461885 6.75642 1.01198 5.00298 2.22679 3.53605C3.59058 2.18372 5.21795 1.49609 7.10892 1.49609C9.01135 1.49609 10.6273 2.18372 11.9452 3.53605L16.8388 8.42964C17.0566 8.64739 17.1597 8.91098 17.1597 9.23187C17.1597 9.55276 17.0566 9.82781 16.8388 10.0456C16.6211 10.2518 16.3575 10.3664 16.0137 10.3664C15.7042 10.3664 15.4406 10.2518 15.2229 10.0456Z" fill="#E2EBD3"/>
</svg>
