<svg width="36" height="36" viewBox="0 0 36 36" fill="none" xmlns="http://www.w3.org/2000/svg">
<g clip-path="url(#clip0_1_395)">
<path d="M12.8287 9.40355C12.7652 9.27365 12.7834 9.11656 12.874 9.0048L20.1243 -0.0583235C20.2286 -0.188227 20.4053 -0.23505 20.5594 -0.173123C20.7134 -0.111191 20.8101 0.0459 20.795 0.210543L20.2286 6.44584H22.8357C22.9807 6.44584 23.1136 6.52892 23.1756 6.66033C23.239 6.79023 23.2209 6.94733 23.1302 7.05908L15.8799 16.1222C15.8074 16.2128 15.6971 16.2642 15.5853 16.2642C15.5385 16.2642 15.4902 16.2551 15.4449 16.237C15.2908 16.1751 15.1941 16.018 15.2092 15.8533L15.7757 9.61804H13.1685C13.0235 9.61804 12.8906 9.53497 12.8287 9.40355ZM33.258 21.223V26.6095C33.258 27.6925 32.3759 28.5746 31.2944 28.5746H30.8413V30.2347C30.8413 31.3177 29.9591 32.1998 28.8776 32.1998H26.4623C25.3793 32.1998 24.4987 31.3177 24.4987 30.2347L24.4972 28.5746H11.5069V30.2347C11.5069 31.3177 10.6248 32.1998 9.54329 32.1998H7.12801C6.04498 32.1998 5.16439 31.3177 5.16439 30.2347L5.16288 28.5746H4.70972C3.62669 28.5746 2.74609 27.6925 2.74609 26.6095V21.223C2.74609 19.4678 3.93333 17.986 5.54655 17.5374L7.90293 9.99549C8.32588 8.64059 9.56448 7.72975 10.9843 7.72975V9.24022C10.2291 9.24022 9.57055 9.72357 9.34546 10.4456L7.17186 17.397H28.8324L26.6603 10.4456C26.4353 9.72508 25.7767 9.24022 25.0214 9.24022V7.72975C26.4413 7.72975 27.6784 8.63908 28.1029 9.99549L30.4592 17.5374C32.0709 17.9875 33.258 19.4693 33.258 21.223ZM25.2525 22.9857C25.2525 23.9872 26.0636 24.7983 27.0651 24.7983C28.0665 24.7983 28.8777 23.9872 28.8777 22.9857C28.8777 21.9843 28.0665 21.1731 27.0651 21.1731C26.0636 21.1731 25.2525 21.9843 25.2525 22.9857ZM7.12662 22.9857C7.12662 23.9872 7.93777 24.7983 8.93921 24.7983C9.94065 24.7983 10.7518 23.9872 10.7518 22.9857C10.7518 21.9843 9.94065 21.1731 8.93921 21.1731C7.93777 21.1731 7.12662 21.9843 7.12662 22.9857ZM21.6273 22.2305H14.377V23.741H21.6273V22.2305Z" fill="#2D5551"/>
</g>
<defs>
<clipPath id="clip0_1_395">
<rect width="36" height="36" fill="white"/>
</clipPath>
</defs>
</svg>
