<svg width="24" height="24" viewBox="0 0 24 24" fill="none" xmlns="http://www.w3.org/2000/svg">
<path d="M12 0C5.6 0 0 5.14666 0 12C0 14.8267 0.986666 17.4267 2.62667 19.48L0 22.12L1.88 24L4.50666 21.3733C6.634 23.0738 9.27652 24.0001 12 24C15.0667 24 18.1467 22.8267 20.48 20.48C21.5976 19.3689 22.484 18.0476 23.0882 16.5921C23.6924 15.1366 24.0022 13.5759 24 12V0H12ZM21.3333 12C21.3333 14.4933 20.36 16.84 18.6 18.6C17.735 19.469 16.7064 20.158 15.5735 20.6272C14.4407 21.0963 13.2261 21.3363 12 21.3333C6.85333 21.3333 2.66667 17.1467 2.66667 12C2.66667 9.46666 3.65333 7.09333 5.46666 5.34666C7.20454 3.6248 9.55357 2.66122 12 2.66667H21.3333V12Z" fill="#E2EBD3"/>
<path d="M7.28078 12.8402L12.6808 13.3735L9.42745 17.8135C9.28078 18.0269 9.29411 18.3202 9.48078 18.5069C9.68078 18.7069 10.0141 18.7202 10.2274 18.5202L17.1074 12.3469C17.5474 11.9469 17.3074 11.2135 16.7074 11.1602L11.3074 10.6269L14.5608 6.18688C14.7074 5.97354 14.6941 5.68021 14.5074 5.49354C14.4087 5.39556 14.2759 5.33948 14.1368 5.337C13.9977 5.33452 13.863 5.38582 13.7608 5.48021L6.88078 11.6535C6.45412 12.0535 6.69412 12.7869 7.28078 12.8402Z" fill="#E2EBD3"/>
</svg>
