<svg width="1680" height="752" viewBox="0 0 1680 752" fill="none" xmlns="http://www.w3.org/2000/svg">
<g clip-path="url(#clip0_1_249)">
<rect y="0.879883" width="1679" height="71" stroke="#CFD7C1"/>
<rect x="1215" y="24.8799" width="23" height="23" stroke="#C2AF20"/>
<rect width="14" height="14" transform="translate(1219.5 29.3799)" fill="#C2AF20"/>
<path d="M1250.16 29.5999H1252.32L1258.58 40.5439V29.5999H1260.13V42.3799H1257.88L1251.7 31.6159V42.3799H1250.16V29.5999ZM1266.66 42.5959C1264.01 42.5959 1262.28 40.6519 1262.28 37.6099C1262.28 34.5679 1264.01 32.6239 1266.66 32.6239C1269.29 32.6239 1271.01 34.5679 1271.01 37.6099C1271.01 40.6519 1269.29 42.5959 1266.66 42.5959ZM1263.87 37.6099C1263.87 39.8239 1264.89 41.1559 1266.66 41.1559C1268.4 41.1559 1269.43 39.8239 1269.43 37.6099C1269.43 35.3959 1268.4 34.0639 1266.66 34.0639C1264.89 34.0639 1263.87 35.3959 1263.87 37.6099ZM1273.71 30.6799H1275.22V32.8399H1277.76V34.1719H1275.22V39.8419C1275.22 40.6339 1275.6 41.0479 1276.36 41.0479H1277.72V42.3799H1276.36C1274.65 42.3799 1273.71 41.4619 1273.71 39.8419V34.1719H1272.31V32.8399H1273.71V30.6799ZM1284.57 29.5999H1292.6V31.1119H1286.12V35.2339H1292.39V36.7099H1286.12V40.8679H1292.75V42.3799H1284.57V29.5999ZM1295.2 29.5999H1296.72V40.4539C1296.72 40.8499 1296.91 41.0479 1297.31 41.0479H1298.14V42.3799H1297.08C1295.96 42.3799 1295.2 41.6239 1295.2 40.5259V29.5999ZM1299.53 37.6099C1299.53 34.5859 1301.24 32.6239 1303.91 32.6239C1306.01 32.6239 1307.88 34.0099 1308.03 37.3939L1308.05 38.0779H1301.13C1301.28 40.0219 1302.27 41.1559 1303.91 41.1559C1304.91 41.1559 1305.85 40.5619 1306.28 39.5539L1307.9 39.6799C1307.34 41.4799 1305.72 42.5959 1303.91 42.5959C1301.24 42.5959 1299.53 40.6339 1299.53 37.6099ZM1301.17 36.7459H1306.39C1306.14 34.7479 1305.06 34.0639 1303.91 34.0639C1302.39 34.0639 1301.42 35.0539 1301.17 36.7459ZM1316.49 36.0439C1316.3 34.8019 1315.25 34.0639 1314.12 34.0639C1312.35 34.0639 1311.33 35.3959 1311.33 37.6099C1311.33 39.8239 1312.35 41.1559 1314.12 41.1559C1315.31 41.1559 1316.35 40.3639 1316.57 38.9959L1318.17 39.1039C1317.86 41.2639 1316.13 42.5959 1314.12 42.5959C1311.45 42.5959 1309.74 40.6339 1309.74 37.6099C1309.74 34.5859 1311.45 32.6239 1314.12 32.6239C1316.06 32.6239 1317.83 33.8839 1318.08 35.9359L1316.49 36.0439ZM1320.68 30.6799H1322.19V32.8399H1324.73V34.1719H1322.19V39.8419C1322.19 40.6339 1322.57 41.0479 1323.33 41.0479H1324.69V42.3799H1323.33C1321.62 42.3799 1320.68 41.4619 1320.68 39.8419V34.1719H1319.28V32.8399H1320.68V30.6799ZM1326.83 32.8399H1328.16L1328.21 34.5859C1328.54 33.3979 1329.24 32.8399 1330.48 32.8399H1331.42V34.1719H1330.48C1329.02 34.1719 1328.34 35.0539 1328.34 36.6919V42.3799H1326.83V32.8399ZM1333.7 32.8399H1335.21V42.3799H1333.7V32.8399ZM1333.66 31.3459V29.6179H1335.25V31.3459H1333.66ZM1344.25 36.0439C1344.05 34.8019 1343.01 34.0639 1341.87 34.0639C1340.11 34.0639 1339.08 35.3959 1339.08 37.6099C1339.08 39.8239 1340.11 41.1559 1341.87 41.1559C1343.06 41.1559 1344.11 40.3639 1344.32 38.9959L1345.92 39.1039C1345.62 41.2639 1343.89 42.5959 1341.87 42.5959C1339.21 42.5959 1337.5 40.6339 1337.5 37.6099C1337.5 34.5859 1339.21 32.6239 1341.87 32.6239C1343.82 32.6239 1345.58 33.8839 1345.83 35.9359L1344.25 36.0439ZM1352.74 29.5999H1354.9L1358.99 40.6879L1363.06 29.5999H1365.22V42.3799H1363.67V32.6959L1360.01 42.3799H1357.94L1354.29 32.6959V42.3799H1352.74V29.5999ZM1367.79 35.6479C1368.17 33.7939 1369.66 32.6239 1371.7 32.6239C1374.15 32.6239 1375.53 34.0639 1375.53 36.6199V40.4539C1375.53 40.8499 1375.71 41.0479 1376.11 41.0479H1376.5V42.3799H1375.86C1374.88 42.3799 1374.04 42.0739 1374.04 40.9039C1373.62 41.7859 1372.58 42.5959 1371.07 42.5959C1369.16 42.5959 1367.63 41.5879 1367.63 39.8779C1367.63 37.9159 1369.11 37.4119 1371.23 37.0159L1374.02 36.4579C1374 34.8559 1373.23 34.0639 1371.7 34.0639C1370.49 34.0639 1369.68 34.6759 1369.39 35.7739L1367.79 35.6479ZM1369.21 39.8779C1369.21 40.6339 1369.86 41.2639 1371.27 41.2639C1372.81 41.2459 1374.06 40.1659 1374.06 37.9339V37.8079L1371.81 38.2039C1370.38 38.4559 1369.21 38.5459 1369.21 39.8779ZM1384.56 36.0439C1384.36 34.8019 1383.31 34.0639 1382.18 34.0639C1380.42 34.0639 1379.39 35.3959 1379.39 37.6099C1379.39 39.8239 1380.42 41.1559 1382.18 41.1559C1383.37 41.1559 1384.41 40.3639 1384.63 38.9959L1386.23 39.1039C1385.92 41.2639 1384.2 42.5959 1382.18 42.5959C1379.52 42.5959 1377.81 40.6339 1377.81 37.6099C1377.81 34.5859 1379.52 32.6239 1382.18 32.6239C1384.12 32.6239 1385.89 33.8839 1386.14 35.9359L1384.56 36.0439ZM1387.98 29.5999H1389.49V34.1359C1390.03 33.0919 1391.15 32.6239 1392.34 32.6239C1394.32 32.6239 1395.56 34.0279 1395.56 36.2419V42.3799H1394.05V36.7819C1394.05 34.9639 1393.38 34.0639 1392.01 34.0639C1390.5 34.0639 1389.49 35.0179 1389.49 36.7819V42.3799H1387.98V29.5999ZM1398.44 32.8399H1399.95V42.3799H1398.44V32.8399ZM1398.4 31.3459V29.6179H1399.99V31.3459H1398.4ZM1402.57 32.8399H1403.96L1403.99 34.4959C1404.48 33.1999 1405.61 32.6239 1406.93 32.6239C1409.1 32.6239 1410.15 34.2259 1410.15 36.2419V42.3799H1408.64V36.6739C1408.64 34.9099 1408.04 33.9559 1406.6 33.9559C1405.09 33.9559 1404.08 34.9099 1404.08 36.6739V42.3799H1402.57V32.8399ZM1412.17 37.6099C1412.17 34.5859 1413.88 32.6239 1416.55 32.6239C1418.65 32.6239 1420.52 34.0099 1420.67 37.3939L1420.69 38.0779H1413.77C1413.92 40.0219 1414.91 41.1559 1416.55 41.1559C1417.55 41.1559 1418.49 40.5619 1418.92 39.5539L1420.54 39.6799C1419.98 41.4799 1418.36 42.5959 1416.55 42.5959C1413.88 42.5959 1412.17 40.6339 1412.17 37.6099ZM1413.81 36.7459H1419.03C1418.78 34.7479 1417.7 34.0639 1416.55 34.0639C1415.03 34.0639 1414.06 35.0539 1413.81 36.7459ZM1428.47 35.7919C1428.25 34.7119 1427.19 34.0639 1426.13 34.0639C1425.07 34.0639 1424.2 34.6039 1424.2 35.5219C1424.2 36.4579 1425.45 36.8359 1426.49 37.0519C1428.65 37.4659 1430.23 38.0599 1430.23 39.9499C1430.23 41.8039 1428.33 42.5959 1426.51 42.5959C1424.26 42.5959 1422.53 41.3539 1422.39 39.3739L1423.97 39.2659C1424.17 40.4179 1425.09 41.1559 1426.51 41.1559C1427.44 41.1559 1428.65 40.8499 1428.65 39.8599C1428.65 38.7259 1427.3 38.5999 1426.22 38.3479C1424.47 37.9519 1422.62 37.4479 1422.62 35.5939C1422.62 33.7759 1424.1 32.6239 1426.29 32.6239C1428.18 32.6239 1429.75 33.8299 1430.05 35.6839L1428.47 35.7919Z" fill="#272523"/>
<rect x="1474" y="24.8799" width="23" height="23" stroke="#2D5551"/>
<rect width="14" height="14" transform="translate(1478.5 29.3799)" fill="#2D5551"/>
<path d="M1509.16 42.3799V29.5999H1517.18V31.1119H1510.7V35.2339H1516.97V36.7099H1510.7V40.8679H1517.33V42.3799H1509.16ZM1521.68 42.3799C1520.56 42.3799 1519.79 41.8399 1519.79 40.5799L1519.8 29.5999H1521.32V40.4539C1521.32 40.8499 1521.51 41.0479 1521.91 41.0479H1522.74V42.3799H1521.68ZM1528.51 42.5959C1525.81 42.5959 1524.13 40.6339 1524.13 37.6099C1524.13 34.5859 1525.81 32.6239 1528.43 32.6239C1530.92 32.6239 1532.65 34.4239 1532.65 37.6279V38.0779H1525.72C1525.82 40.1299 1526.85 41.1559 1528.51 41.1559C1529.75 41.1559 1530.56 40.5259 1530.88 39.5539L1532.5 39.6799C1532 41.3899 1530.52 42.5959 1528.51 42.5959ZM1530.99 36.7459C1530.85 34.9099 1529.84 34.0639 1528.43 34.0639C1526.96 34.0639 1525.97 34.9819 1525.72 36.7459H1530.99ZM1538.63 42.5959C1535.97 42.5959 1534.26 40.6339 1534.26 37.6099C1534.26 34.5859 1535.97 32.6239 1538.63 32.6239C1540.83 32.6239 1542.36 33.8119 1542.68 35.9359L1541.1 36.0439C1540.88 34.7839 1539.93 34.0639 1538.63 34.0639C1536.87 34.0639 1535.84 35.3959 1535.84 37.6099C1535.84 39.8239 1536.87 41.1559 1538.63 41.1559C1539.93 41.1559 1540.88 40.4359 1541.1 38.9959L1542.68 39.1039C1542.36 41.2279 1540.83 42.5959 1538.63 42.5959ZM1547.73 42.3799C1546 42.3799 1545.19 41.6239 1545.19 39.9319V34.1719H1543.79V32.8399H1545.19V30.6079H1546.7V32.8399H1549.24V34.1719H1546.7V39.8959C1546.7 40.7599 1547.08 41.0479 1547.87 41.0479H1549.24V42.3799H1547.73ZM1551.43 42.3799V32.8399H1552.76L1552.81 34.6039C1553.15 33.3979 1553.91 32.8399 1555.08 32.8399H1556.02V34.2799H1555.1C1553.66 34.2799 1552.94 35.0539 1552.94 36.6199V42.3799H1551.43ZM1558.04 42.3799V32.8399H1559.55V42.3799H1558.04ZM1558 31.3459V29.5819H1559.58V31.3459H1558ZM1566.21 42.5959C1563.55 42.5959 1561.84 40.6339 1561.84 37.6099C1561.84 34.5859 1563.55 32.6239 1566.21 32.6239C1568.41 32.6239 1569.94 33.8119 1570.26 35.9359L1568.68 36.0439C1568.46 34.7839 1567.51 34.0639 1566.21 34.0639C1564.45 34.0639 1563.42 35.3959 1563.42 37.6099C1563.42 39.8239 1564.45 41.1559 1566.21 41.1559C1567.51 41.1559 1568.46 40.4359 1568.68 38.9959L1570.26 39.1039C1569.94 41.2279 1568.41 42.5959 1566.21 42.5959ZM1577.08 42.3799V29.5999H1579.24L1583.32 40.6879L1587.39 29.5999H1589.55V42.3799H1588V32.4799L1584.35 42.3799H1582.28L1578.63 32.4799V42.3799H1577.08ZM1595.28 42.5959C1593.3 42.5959 1592.05 41.6419 1592.05 40.0039C1592.05 38.3839 1592.97 37.4839 1595.06 37.0879L1598.44 36.4579C1598.44 34.8559 1597.69 34.0639 1596.18 34.0639C1594.84 34.0639 1594.11 34.6759 1593.82 35.7739L1592.22 35.6479C1592.58 33.8479 1594.02 32.6239 1596.18 32.6239C1598.62 32.6239 1599.96 34.0999 1599.96 36.5119V40.4539C1599.96 40.8859 1600.1 41.0479 1600.46 41.0479H1600.84V42.3799C1600.73 42.3979 1600.5 42.4159 1600.26 42.4159C1599.11 42.4159 1598.59 41.9659 1598.46 40.9039C1597.99 41.8939 1596.68 42.5959 1595.28 42.5959ZM1595.42 41.2639C1597.33 41.2639 1598.44 40.0399 1598.44 38.4559V37.7719L1595.35 38.3479C1594.05 38.5819 1593.64 39.0679 1593.64 39.8599C1593.64 40.7599 1594.3 41.2639 1595.42 41.2639ZM1606.52 42.5959C1603.85 42.5959 1602.14 40.6339 1602.14 37.6099C1602.14 34.5859 1603.85 32.6239 1606.52 32.6239C1608.71 32.6239 1610.24 33.8119 1610.57 35.9359L1608.98 36.0439C1608.77 34.7839 1607.81 34.0639 1606.52 34.0639C1604.75 34.0639 1603.73 35.3959 1603.73 37.6099C1603.73 39.8239 1604.75 41.1559 1606.52 41.1559C1607.81 41.1559 1608.77 40.4359 1608.98 38.9959L1610.57 39.1039C1610.24 41.2279 1608.71 42.5959 1606.52 42.5959ZM1612.32 42.3799V29.5999H1613.83V34.3339C1614.31 33.1639 1615.39 32.6239 1616.71 32.6239C1618.76 32.6239 1619.89 34.1179 1619.89 36.2419V42.3799H1618.38V36.6739C1618.38 34.8379 1617.72 33.9559 1616.38 33.9559C1614.84 33.9559 1613.83 34.9279 1613.83 36.6919V42.3799H1612.32ZM1622.78 42.3799V32.8399H1624.29V42.3799H1622.78ZM1622.74 31.3459V29.5819H1624.32V31.3459H1622.74ZM1626.91 42.3799V32.8399H1628.29L1628.33 34.5499C1628.83 33.2359 1629.95 32.6239 1631.26 32.6239C1633.44 32.6239 1634.48 34.2259 1634.48 36.2419V42.3799H1632.97V36.6739C1632.97 34.9099 1632.38 33.9559 1630.94 33.9559C1629.46 33.9559 1628.42 34.9099 1628.42 36.6739V42.3799H1626.91ZM1640.88 42.5959C1638.18 42.5959 1636.51 40.6339 1636.51 37.6099C1636.51 34.5859 1638.18 32.6239 1640.81 32.6239C1643.29 32.6239 1645.02 34.4239 1645.02 37.6279V38.0779H1638.09C1638.2 40.1299 1639.23 41.1559 1640.88 41.1559C1642.12 41.1559 1642.93 40.5259 1643.26 39.5539L1644.88 39.6799C1644.37 41.3899 1642.9 42.5959 1640.88 42.5959ZM1643.37 36.7459C1643.22 34.9099 1642.21 34.0639 1640.81 34.0639C1639.33 34.0639 1638.34 34.9819 1638.09 36.7459H1643.37ZM1650.76 42.5959C1648.2 42.5959 1646.78 41.2459 1646.63 39.3739L1648.22 39.2659C1648.4 40.4179 1649.14 41.1559 1650.76 41.1559C1652.05 41.1559 1652.9 40.7599 1652.9 39.8239C1652.9 39.0679 1652.52 38.7439 1650.47 38.3839C1647.73 37.8979 1646.87 37.0519 1646.87 35.5399C1646.87 33.8479 1648.16 32.6239 1650.47 32.6239C1652.79 32.6239 1654.01 34.0279 1654.3 35.6839L1652.72 35.7919C1652.5 34.7839 1651.75 34.0639 1650.45 34.0639C1649.08 34.0639 1648.45 34.6579 1648.45 35.4679C1648.45 36.4039 1649.06 36.7639 1650.76 37.0519C1653.67 37.5559 1654.48 38.3119 1654.48 39.8239C1654.48 41.5879 1652.86 42.5959 1650.76 42.5959Z" fill="#272523"/>
<path d="M26.668 110.38C26.668 106.86 28.172 103.276 30.7 100.364H24.14V99.0199H32.204V100.268C29.34 103.532 28.076 106.54 28.076 110.38H26.668ZM33.5958 110.38V108.572H35.4038V110.38H33.5958ZM41.1483 110.636C38.7483 110.636 37.2763 109.34 37.1163 107.452L38.5563 107.356C38.7163 108.636 39.7083 109.292 41.1483 109.292C42.7483 109.292 43.7563 108.332 43.7563 106.732C43.7563 105.132 42.7803 104.124 41.1163 104.124C40.0603 104.124 39.1483 104.604 38.7803 105.404H37.3083L38.0603 99.0199H44.4283V100.364H39.3243L38.9083 103.788C39.4843 103.148 40.3963 102.812 41.3723 102.812C43.6443 102.812 45.1962 104.46 45.1962 106.732C45.1962 109.02 43.5323 110.636 41.1483 110.636ZM55.3399 110.572C54.1559 110.572 53.1959 110.028 52.7159 109.1L52.6679 110.38H51.4519V99.0199H52.7959V103.084C53.2119 102.38 54.1559 101.708 55.3399 101.708C57.5799 101.708 58.9879 103.42 58.9879 106.14C58.9879 108.86 57.5799 110.572 55.3399 110.572ZM55.2599 109.292C56.6839 109.292 57.5799 108.076 57.5799 106.14C57.5799 104.172 56.6839 102.988 55.2919 102.988C53.7239 102.988 52.7959 104.172 52.7959 106.14C52.7959 108.076 53.7239 109.292 55.2599 109.292ZM60.7019 110.38V101.9H62.0459V110.38H60.7019ZM60.6699 100.572V99.0039H62.0779V100.572H60.6699ZM66.2881 110.38C65.2961 110.38 64.6081 109.9 64.6081 108.78L64.6241 99.0199H65.9681V108.668C65.9681 109.02 66.1441 109.196 66.4961 109.196H67.2321V110.38H66.2881ZM70.6788 110.38C69.6868 110.38 68.9988 109.9 68.9988 108.78L69.0148 99.0199H70.3588V108.668C70.3588 109.02 70.5348 109.196 70.8868 109.196H71.6228V110.38H70.6788ZM73.5456 110.38V101.9H74.8896V110.38H73.5456ZM73.5136 100.572V99.0039H74.9216V100.572H73.5136ZM80.8119 110.572C78.4599 110.572 76.9239 108.844 76.9239 106.14C76.9239 103.436 78.4599 101.708 80.8119 101.708C83.1479 101.708 84.6839 103.436 84.6839 106.14C84.6839 108.844 83.1479 110.572 80.8119 110.572ZM80.8119 109.292C82.3639 109.292 83.2759 108.108 83.2759 106.14C83.2759 104.172 82.3639 102.988 80.8119 102.988C79.2439 102.988 78.3319 104.172 78.3319 106.14C78.3319 108.108 79.2439 109.292 80.8119 109.292ZM86.6394 110.38V101.9H87.8714L87.9034 103.42C88.3514 102.252 89.3434 101.708 90.5114 101.708C92.4474 101.708 93.3754 103.132 93.3754 104.924V110.38H92.0314V105.308C92.0314 103.74 91.5034 102.892 90.2234 102.892C88.9114 102.892 87.9834 103.74 87.9834 105.308V110.38H86.6394Z" fill="#6F755F"/>
<path d="M28.492 305.636C26.092 305.636 24.62 304.34 24.46 302.452L25.9 302.356C26.06 303.636 27.052 304.292 28.492 304.292C30.092 304.292 31.1 303.332 31.1 301.732C31.1 300.132 30.124 299.124 28.46 299.124C27.404 299.124 26.492 299.604 26.124 300.404H24.652L25.404 294.02H31.772V295.364H26.668L26.252 298.788C26.828 298.148 27.74 297.812 28.716 297.812C30.988 297.812 32.54 299.46 32.54 301.732C32.54 304.02 30.876 305.636 28.492 305.636ZM34.3156 307.876L35.0836 305.38H34.2676V303.572H36.0756V305.156L35.1156 307.876H34.3156ZM41.8756 305.636C39.1236 305.636 37.3796 303.348 37.3796 299.716C37.3796 296.068 39.1236 293.764 41.8756 293.764C44.6436 293.764 46.3876 296.052 46.3876 299.716C46.3876 303.348 44.6436 305.636 41.8756 305.636ZM41.8756 304.292C43.8436 304.292 44.9476 302.644 44.9476 299.716C44.9476 296.772 43.8436 295.108 41.8756 295.108C39.9236 295.108 38.8196 296.772 38.8196 299.716C38.8196 302.644 39.9236 304.292 41.8756 304.292Z" fill="#6F755F"/>
<path d="M24.46 500.38C24.46 497.98 25.404 496.396 28.812 494.588C30.38 493.756 31.004 493.244 31.004 492.092C31.004 490.924 30.236 490.108 28.732 490.108C27.132 490.108 26.204 490.972 25.964 492.508L24.524 492.412C24.78 490.188 26.268 488.764 28.732 488.764C31.068 488.764 32.444 490.108 32.444 492.06C32.444 493.788 31.676 494.652 29.324 495.9C27.276 496.988 26.22 498.172 26.156 499.036H32.444V500.38H24.46ZM34.2063 502.876L34.9743 500.38H34.1583V498.572H35.9663V500.156L35.0063 502.876H34.2063ZM41.7108 500.636C39.3108 500.636 37.8388 499.34 37.6788 497.452L39.1188 497.356C39.2788 498.636 40.2708 499.292 41.7108 499.292C43.3108 499.292 44.3188 498.332 44.3188 496.732C44.3188 495.132 43.3428 494.124 41.6788 494.124C40.6228 494.124 39.7108 494.604 39.3428 495.404H37.8708L38.6228 489.02H44.9908V490.364H39.8868L39.4708 493.788C40.0468 493.148 40.9588 492.812 41.9348 492.812C44.2068 492.812 45.7587 494.46 45.7587 496.732C45.7587 499.02 44.0948 500.636 41.7108 500.636Z" fill="#6F755F"/>
<path d="M28.86 695.636C26.108 695.636 24.364 693.348 24.364 689.716C24.364 686.068 26.108 683.764 28.86 683.764C31.628 683.764 33.372 686.052 33.372 689.716C33.372 693.348 31.628 695.636 28.86 695.636ZM28.86 694.292C30.828 694.292 31.932 692.644 31.932 689.716C31.932 686.772 30.828 685.108 28.86 685.108C26.908 685.108 25.804 686.772 25.804 689.716C25.804 692.644 26.908 694.292 28.86 694.292Z" fill="#6F755F"/>
<mask id="path-12-inside-1_1_249" fill="white">
<path d="M81.5 688.38H1679.5V752.38H81.5V688.38Z"/>
</mask>
<path d="M81.5 689.38H1679.5V687.38H81.5V689.38Z" fill="#CFD7C1" mask="url(#path-12-inside-1_1_249)"/>
<path d="M106.46 726.38C106.46 723.98 107.404 722.396 110.812 720.588C112.38 719.756 113.004 719.244 113.004 718.092C113.004 716.924 112.236 716.108 110.732 716.108C109.132 716.108 108.204 716.972 107.964 718.508L106.524 718.412C106.78 716.188 108.268 714.764 110.732 714.764C113.068 714.764 114.444 716.108 114.444 718.06C114.444 719.788 113.676 720.652 111.324 721.9C109.276 722.988 108.22 724.172 108.156 725.036H114.444V726.38H106.46ZM120.61 726.636C117.858 726.636 116.114 724.348 116.114 720.716C116.114 717.068 117.858 714.764 120.61 714.764C123.378 714.764 125.122 717.052 125.122 720.716C125.122 724.348 123.378 726.636 120.61 726.636ZM120.61 725.292C122.578 725.292 123.682 723.644 123.682 720.716C123.682 717.772 122.578 716.108 120.61 716.108C118.658 716.108 117.554 717.772 117.554 720.716C117.554 723.644 118.658 725.292 120.61 725.292ZM128.992 726.38V717.964H126.624V716.78H127.584C128.832 716.78 129.28 716.364 129.28 715.02H130.368V726.38H128.992ZM137.117 726.636C134.557 726.636 133.085 724.828 133.085 721.58C133.085 717.836 134.205 714.764 137.565 714.764C139.581 714.764 140.637 715.852 141.085 717.452L139.645 717.58C139.389 716.684 138.813 716.108 137.565 716.108C135.837 716.108 134.749 717.452 134.525 720.188C135.069 719.356 136.077 718.732 137.373 718.732C139.613 718.732 141.133 720.268 141.133 722.604C141.133 725.1 139.469 726.636 137.117 726.636ZM137.149 725.292C138.637 725.292 139.693 724.3 139.693 722.604C139.693 721.036 138.701 720.044 137.277 720.044C135.741 720.044 134.589 721.036 134.589 722.604C134.589 724.172 135.581 725.292 137.149 725.292Z" fill="#6F755F"/>
<path d="M586.127 726.38C586.127 723.98 587.071 722.396 590.479 720.588C592.047 719.756 592.671 719.244 592.671 718.092C592.671 716.924 591.903 716.108 590.399 716.108C588.799 716.108 587.871 716.972 587.631 718.508L586.191 718.412C586.447 716.188 587.935 714.764 590.399 714.764C592.735 714.764 594.111 716.108 594.111 718.06C594.111 719.788 593.343 720.652 590.991 721.9C588.943 722.988 587.887 724.172 587.823 725.036H594.111V726.38H586.127ZM600.277 726.636C597.525 726.636 595.781 724.348 595.781 720.716C595.781 717.068 597.525 714.764 600.277 714.764C603.045 714.764 604.789 717.052 604.789 720.716C604.789 724.348 603.045 726.636 600.277 726.636ZM600.277 725.292C602.245 725.292 603.349 723.644 603.349 720.716C603.349 717.772 602.245 716.108 600.277 716.108C598.325 716.108 597.221 717.772 597.221 720.716C597.221 723.644 598.325 725.292 600.277 725.292ZM608.659 726.38V717.964H606.291V716.78H607.251C608.499 716.78 608.947 716.364 608.947 715.02H610.035V726.38H608.659ZM616.624 726.636C614.176 726.636 612.432 725.468 612.432 723.26C612.432 721.788 613.28 720.748 614.624 720.268C613.616 719.852 612.976 719.1 612.976 717.884C612.976 716.092 614.416 714.764 616.624 714.764C618.832 714.764 620.272 716.092 620.272 717.884C620.272 719.1 619.632 719.852 618.624 720.268C619.968 720.748 620.816 721.788 620.816 723.26C620.816 725.468 619.072 726.636 616.624 726.636ZM616.624 725.292C618.304 725.292 619.376 724.62 619.376 723.18C619.376 721.852 618.512 720.988 616.624 720.988C614.736 720.988 613.872 721.852 613.872 723.18C613.872 724.62 614.944 725.292 616.624 725.292ZM616.624 719.708C618.032 719.708 618.832 719.1 618.832 717.884C618.832 716.796 618.064 716.108 616.624 716.108C615.184 716.108 614.416 716.796 614.416 717.884C614.416 719.1 615.216 719.708 616.624 719.708Z" fill="#6F755F"/>
<path d="M1065.79 726.38C1065.79 723.98 1066.74 722.396 1070.15 720.588C1071.71 719.756 1072.34 719.244 1072.34 718.092C1072.34 716.924 1071.57 716.108 1070.07 716.108C1068.47 716.108 1067.54 716.972 1067.3 718.508L1065.86 718.412C1066.11 716.188 1067.6 714.764 1070.07 714.764C1072.4 714.764 1073.78 716.108 1073.78 718.06C1073.78 719.788 1073.01 720.652 1070.66 721.9C1068.61 722.988 1067.55 724.172 1067.49 725.036H1073.78V726.38H1065.79ZM1079.94 726.636C1077.19 726.636 1075.45 724.348 1075.45 720.716C1075.45 717.068 1077.19 714.764 1079.94 714.764C1082.71 714.764 1084.46 717.052 1084.46 720.716C1084.46 724.348 1082.71 726.636 1079.94 726.636ZM1079.94 725.292C1081.91 725.292 1083.02 723.644 1083.02 720.716C1083.02 717.772 1081.91 716.108 1079.94 716.108C1077.99 716.108 1076.89 717.772 1076.89 720.716C1076.89 723.644 1077.99 725.292 1079.94 725.292ZM1086.12 726.38C1086.12 723.98 1087.07 722.396 1090.47 720.588C1092.04 719.756 1092.67 719.244 1092.67 718.092C1092.67 716.924 1091.9 716.108 1090.39 716.108C1088.79 716.108 1087.87 716.972 1087.63 718.508L1086.19 718.412C1086.44 716.188 1087.93 714.764 1090.39 714.764C1092.73 714.764 1094.11 716.108 1094.11 718.06C1094.11 719.788 1093.34 720.652 1090.99 721.9C1088.94 722.988 1087.88 724.172 1087.82 725.036H1094.11V726.38H1086.12ZM1100.27 726.636C1097.52 726.636 1095.78 724.348 1095.78 720.716C1095.78 717.068 1097.52 714.764 1100.27 714.764C1103.04 714.764 1104.78 717.052 1104.78 720.716C1104.78 724.348 1103.04 726.636 1100.27 726.636ZM1100.27 725.292C1102.24 725.292 1103.34 723.644 1103.34 720.716C1103.34 717.772 1102.24 716.108 1100.27 716.108C1098.32 716.108 1097.22 717.772 1097.22 720.716C1097.22 723.644 1098.32 725.292 1100.27 725.292Z" fill="#6F755F"/>
<path d="M1549.46 726.38C1549.46 723.98 1550.4 722.396 1553.81 720.588C1555.38 719.756 1556 719.244 1556 718.092C1556 716.924 1555.24 716.108 1553.73 716.108C1552.13 716.108 1551.2 716.972 1550.96 718.508L1549.52 718.412C1549.78 716.188 1551.27 714.764 1553.73 714.764C1556.07 714.764 1557.44 716.108 1557.44 718.06C1557.44 719.788 1556.68 720.652 1554.32 721.9C1552.28 722.988 1551.22 724.172 1551.16 725.036H1557.44V726.38H1549.46ZM1563.61 726.636C1560.86 726.636 1559.11 724.348 1559.11 720.716C1559.11 717.068 1560.86 714.764 1563.61 714.764C1566.38 714.764 1568.12 717.052 1568.12 720.716C1568.12 724.348 1566.38 726.636 1563.61 726.636ZM1563.61 725.292C1565.58 725.292 1566.68 723.644 1566.68 720.716C1566.68 717.772 1565.58 716.108 1563.61 716.108C1561.66 716.108 1560.55 717.772 1560.55 720.716C1560.55 723.644 1561.66 725.292 1563.61 725.292ZM1569.79 726.38C1569.79 723.98 1570.73 722.396 1574.14 720.588C1575.71 719.756 1576.33 719.244 1576.33 718.092C1576.33 716.924 1575.56 716.108 1574.06 716.108C1572.46 716.108 1571.53 716.972 1571.29 718.508L1569.85 718.412C1570.11 716.188 1571.6 714.764 1574.06 714.764C1576.4 714.764 1577.77 716.108 1577.77 718.06C1577.77 719.788 1577 720.652 1574.65 721.9C1572.6 722.988 1571.55 724.172 1571.48 725.036H1577.77V726.38H1569.79ZM1579.69 726.38C1579.69 723.98 1580.64 722.396 1584.05 720.588C1585.61 719.756 1586.24 719.244 1586.24 718.092C1586.24 716.924 1585.47 716.108 1583.97 716.108C1582.37 716.108 1581.44 716.972 1581.2 718.508L1579.76 718.412C1580.01 716.188 1581.5 714.764 1583.97 714.764C1586.3 714.764 1587.68 716.108 1587.68 718.06C1587.68 719.788 1586.91 720.652 1584.56 721.9C1582.51 722.988 1581.45 724.172 1581.39 725.036H1587.68V726.38H1579.69Z" fill="#6F755F"/>
<g clip-path="url(#clip1_1_249)">
<rect x="510.5" y="575.38" width="24" height="116" fill="#C2AF20"/>
<rect x="510.5" y="575.38" width="24" height="116" stroke="#E2EBD3" stroke-width="6"/>
<rect x="534.5" y="531.38" width="24" height="160" fill="#C2AF20"/>
<rect x="534.5" y="531.38" width="24" height="160" stroke="#E2EBD3" stroke-width="6"/>
<rect x="558.5" y="497.38" width="24" height="194" fill="#C2AF20"/>
<rect x="558.5" y="497.38" width="24" height="194" stroke="#E2EBD3" stroke-width="6"/>
<rect x="582.5" y="459.38" width="24" height="232" fill="#C2AF20"/>
<rect x="582.5" y="459.38" width="24" height="232" stroke="#E2EBD3" stroke-width="6"/>
<rect x="606.5" y="478.38" width="24" height="213" fill="#C2AF20"/>
<rect x="606.5" y="478.38" width="24" height="213" stroke="#E2EBD3" stroke-width="6"/>
<rect x="630.5" y="531.38" width="24" height="160" fill="#C2AF20"/>
<rect x="630.5" y="531.38" width="24" height="160" stroke="#E2EBD3" stroke-width="6"/>
<rect x="654.5" y="513.38" width="24" height="178" fill="#C2AF20"/>
<rect x="654.5" y="513.38" width="24" height="178" stroke="#E2EBD3" stroke-width="6"/>
<rect x="678.5" y="585.38" width="24" height="106" fill="#C2AF20"/>
<rect x="678.5" y="585.38" width="24" height="106" stroke="#E2EBD3" stroke-width="6"/>
<rect x="702.5" y="639.38" width="24" height="52" fill="#C2AF20"/>
<rect x="702.5" y="639.38" width="24" height="52" stroke="#E2EBD3" stroke-width="6"/>
<rect x="726.5" y="609.38" width="24" height="82" fill="#C2AF20"/>
<rect x="726.5" y="609.38" width="24" height="82" stroke="#E2EBD3" stroke-width="6"/>
<rect x="750.5" y="634.38" width="24" height="57" fill="#C2AF20"/>
<rect x="750.5" y="634.38" width="24" height="57" stroke="#E2EBD3" stroke-width="6"/>
<rect x="774.5" y="605.38" width="24" height="86" fill="#C2AF20"/>
<rect x="774.5" y="605.38" width="24" height="86" stroke="#E2EBD3" stroke-width="6"/>
<rect x="798.5" y="585.38" width="24" height="106" fill="#C2AF20"/>
<rect x="798.5" y="585.38" width="24" height="106" stroke="#E2EBD3" stroke-width="6"/>
<rect x="822.5" y="609.38" width="24" height="82" fill="#C2AF20"/>
<rect x="822.5" y="609.38" width="24" height="82" stroke="#E2EBD3" stroke-width="6"/>
<rect x="846.5" y="604.38" width="24" height="87" fill="#C2AF20"/>
<rect x="846.5" y="604.38" width="24" height="87" stroke="#E2EBD3" stroke-width="6"/>
<rect x="870.5" y="578.38" width="24" height="113" fill="#C2AF20"/>
<rect x="870.5" y="578.38" width="24" height="113" stroke="#E2EBD3" stroke-width="6"/>
<rect x="894.5" y="551.38" width="24" height="140" fill="#C2AF20"/>
<rect x="894.5" y="551.38" width="24" height="140" stroke="#E2EBD3" stroke-width="6"/>
<rect x="918.5" y="513.38" width="24" height="178" fill="#C2AF20"/>
<rect x="918.5" y="513.38" width="24" height="178" stroke="#E2EBD3" stroke-width="6"/>
<rect x="942.5" y="497.38" width="24" height="194" fill="#C2AF20"/>
<rect x="942.5" y="497.38" width="24" height="194" stroke="#E2EBD3" stroke-width="6"/>
<rect x="966.5" y="393.38" width="24" height="298" fill="#C2AF20"/>
<rect x="966.5" y="393.38" width="24" height="298" stroke="#E2EBD3" stroke-width="6"/>
<rect x="990.5" y="438.38" width="24" height="253" fill="#C2AF20"/>
<rect x="990.5" y="438.38" width="24" height="253" stroke="#E2EBD3" stroke-width="6"/>
<rect x="1014.5" y="348.38" width="24" height="343" fill="#C2AF20"/>
<rect x="1014.5" y="348.38" width="24" height="343" stroke="#E2EBD3" stroke-width="6"/>
<rect x="1038.5" y="138.38" width="24" height="553" fill="#C2AF20"/>
<rect x="1038.5" y="138.38" width="24" height="553" stroke="#E2EBD3" stroke-width="6"/>
<rect x="1062.5" y="160.38" width="24" height="531" fill="#C2AF20"/>
<rect x="1062.5" y="160.38" width="24" height="531" stroke="#E2EBD3" stroke-width="6"/>
<rect x="1086.5" y="276.38" width="24" height="415" fill="#C2AF20"/>
<rect x="1086.5" y="276.38" width="24" height="415" stroke="#E2EBD3" stroke-width="6"/>
<rect x="1110.5" y="260.38" width="24" height="431" fill="#C2AF20"/>
<rect x="1110.5" y="260.38" width="24" height="431" stroke="#E2EBD3" stroke-width="6"/>
<rect x="1134.5" y="283.38" width="24" height="408" fill="#C2AF20"/>
<rect x="1134.5" y="283.38" width="24" height="408" stroke="#E2EBD3" stroke-width="6"/>
<rect x="1158.5" y="243.38" width="24" height="448" fill="#C2AF20"/>
<rect x="1158.5" y="243.38" width="24" height="448" stroke="#E2EBD3" stroke-width="6"/>
<rect x="1182.5" y="326.38" width="24" height="365" fill="#C2AF20"/>
<rect x="1182.5" y="326.38" width="24" height="365" stroke="#E2EBD3" stroke-width="6"/>
<rect x="1206.5" y="298.38" width="24" height="393" fill="#C2AF20"/>
<rect x="1206.5" y="298.38" width="24" height="393" stroke="#E2EBD3" stroke-width="6"/>
<rect x="1230.5" y="265.38" width="24" height="426" fill="#C2AF20"/>
<rect x="1230.5" y="265.38" width="24" height="426" stroke="#E2EBD3" stroke-width="6"/>
<rect x="1254.5" y="192.38" width="24" height="499" fill="#C2AF20"/>
<rect x="1254.5" y="192.38" width="24" height="499" stroke="#E2EBD3" stroke-width="6"/>
<rect x="1278.5" y="168.38" width="24" height="523" fill="#C2AF20"/>
<rect x="1278.5" y="168.38" width="24" height="523" stroke="#E2EBD3" stroke-width="6"/>
<rect x="1302.5" y="192.38" width="24" height="499" fill="#C2AF20"/>
<rect x="1302.5" y="192.38" width="24" height="499" stroke="#E2EBD3" stroke-width="6"/>
<rect x="1326.5" y="222.38" width="24" height="469" fill="#C2AF20"/>
<rect x="1326.5" y="222.38" width="24" height="469" stroke="#E2EBD3" stroke-width="6"/>
<rect x="1350.5" y="260.38" width="24" height="431" fill="#C2AF20"/>
<rect x="1350.5" y="260.38" width="24" height="431" stroke="#E2EBD3" stroke-width="6"/>
<rect x="1374.5" y="291.38" width="24" height="400" fill="#C2AF20"/>
<rect x="1374.5" y="291.38" width="24" height="400" stroke="#E2EBD3" stroke-width="6"/>
<rect x="1398.5" y="260.38" width="24" height="431" fill="#C2AF20"/>
<rect x="1398.5" y="260.38" width="24" height="431" stroke="#E2EBD3" stroke-width="6"/>
<rect x="1422.5" y="298.38" width="24" height="393" fill="#C2AF20"/>
<rect x="1422.5" y="298.38" width="24" height="393" stroke="#E2EBD3" stroke-width="6"/>
<rect x="1542.5" y="298.38" width="24" height="393" fill="#C2AF20"/>
<rect x="1542.5" y="298.38" width="24" height="393" stroke="#E2EBD3" stroke-width="6"/>
<rect x="1446.5" y="260.38" width="24" height="431" fill="#C2AF20"/>
<rect x="1446.5" y="260.38" width="24" height="431" stroke="#E2EBD3" stroke-width="6"/>
<rect x="1566.5" y="260.38" width="24" height="431" fill="#C2AF20"/>
<rect x="1566.5" y="260.38" width="24" height="431" stroke="#E2EBD3" stroke-width="6"/>
<rect x="1470.5" y="228.38" width="24" height="463" fill="#C2AF20"/>
<rect x="1470.5" y="228.38" width="24" height="463" stroke="#E2EBD3" stroke-width="6"/>
<rect x="1590.5" y="228.38" width="24" height="463" fill="#C2AF20"/>
<rect x="1590.5" y="228.38" width="24" height="463" stroke="#E2EBD3" stroke-width="6"/>
<rect x="1494.5" y="260.38" width="24" height="431" fill="#C2AF20"/>
<rect x="1494.5" y="260.38" width="24" height="431" stroke="#E2EBD3" stroke-width="6"/>
<rect x="1614.5" y="260.38" width="24" height="431" fill="#C2AF20"/>
<rect x="1614.5" y="260.38" width="24" height="431" stroke="#E2EBD3" stroke-width="6"/>
<rect x="1518.5" y="309.38" width="24" height="382" fill="#C2AF20"/>
<rect x="1518.5" y="309.38" width="24" height="382" stroke="#E2EBD3" stroke-width="6"/>
<rect x="1638.5" y="309.38" width="24" height="382" fill="#C2AF20"/>
<rect x="1638.5" y="309.38" width="24" height="382" stroke="#E2EBD3" stroke-width="6"/>
<rect width="18" height="45" transform="translate(81.5 643.38)" fill="#C2AF20"/>
<rect width="18" height="59" transform="translate(105.5 629.38)" fill="#C2AF20"/>
<rect width="18" height="65" transform="translate(129.5 623.38)" fill="#C2AF20"/>
<rect width="18" height="81" transform="translate(153.5 607.38)" fill="#C2AF20"/>
<rect width="18" height="76" transform="translate(177.5 612.38)" fill="#C2AF20"/>
<rect width="18" height="71" transform="translate(201.5 617.38)" fill="#C2AF20"/>
<rect width="18" height="76" transform="translate(225.5 612.38)" fill="#C2AF20"/>
<rect width="18" height="81" transform="translate(249.5 607.38)" fill="#C2AF20"/>
<rect width="18" height="59" transform="translate(273.5 629.38)" fill="#C2AF20"/>
<rect width="18" height="43" transform="translate(297.5 645.38)" fill="#C2AF20"/>
<rect width="18" height="51" transform="translate(321.5 637.38)" fill="#C2AF20"/>
<rect width="18" height="59" transform="translate(345.5 629.38)" fill="#C2AF20"/>
<rect width="18" height="34" transform="translate(369.5 654.38)" fill="#C2AF20"/>
<rect width="18" height="65" transform="translate(393.5 623.38)" fill="#C2AF20"/>
<rect width="18" height="43" transform="translate(417.5 645.38)" fill="#C2AF20"/>
<rect width="18" height="67" transform="translate(441.5 621.38)" fill="#C2AF20"/>
<rect width="18" height="71" transform="translate(465.5 617.38)" fill="#C2AF20"/>
<rect width="18" height="74" transform="translate(489.5 614.38)" fill="#C2AF20"/>
<rect x="510.5" y="680.38" width="24" height="11" fill="#2D5551"/>
<rect x="510.5" y="680.38" width="24" height="11" stroke="#E2EBD3" stroke-width="6"/>
<rect x="534.5" y="676.38" width="24" height="15" fill="#2D5551"/>
<rect x="534.5" y="676.38" width="24" height="15" stroke="#E2EBD3" stroke-width="6"/>
<rect x="558.5" y="678.38" width="24" height="13" fill="#2D5551"/>
<rect x="558.5" y="678.38" width="24" height="13" stroke="#E2EBD3" stroke-width="6"/>
<rect x="582.5" y="680.38" width="24" height="11" fill="#2D5551"/>
<rect x="582.5" y="680.38" width="24" height="11" stroke="#E2EBD3" stroke-width="6"/>
<rect x="606.5" y="680.38" width="24" height="11" fill="#2D5551"/>
<rect x="606.5" y="680.38" width="24" height="11" stroke="#E2EBD3" stroke-width="6"/>
<rect x="630.5" y="680.38" width="24" height="11" fill="#2D5551"/>
<rect x="630.5" y="680.38" width="24" height="11" stroke="#E2EBD3" stroke-width="6"/>
<rect x="654.5" y="680.38" width="24" height="11" fill="#2D5551"/>
<rect x="654.5" y="680.38" width="24" height="11" stroke="#E2EBD3" stroke-width="6"/>
<rect x="678.5" y="673.38" width="24" height="18" fill="#2D5551"/>
<rect x="678.5" y="673.38" width="24" height="18" stroke="#E2EBD3" stroke-width="6"/>
<rect x="702.5" y="676.38" width="24" height="15" fill="#2D5551"/>
<rect x="702.5" y="676.38" width="24" height="15" stroke="#E2EBD3" stroke-width="6"/>
<rect x="726.5" y="665.38" width="24" height="26" fill="#2D5551"/>
<rect x="726.5" y="665.38" width="24" height="26" stroke="#E2EBD3" stroke-width="6"/>
<rect x="750.5" y="665.38" width="24" height="26" fill="#2D5551"/>
<rect x="750.5" y="665.38" width="24" height="26" stroke="#E2EBD3" stroke-width="6"/>
<rect x="774.5" y="673.38" width="24" height="18" fill="#2D5551"/>
<rect x="774.5" y="673.38" width="24" height="18" stroke="#E2EBD3" stroke-width="6"/>
<rect x="798.5" y="650.38" width="24" height="41" fill="#2D5551"/>
<rect x="798.5" y="650.38" width="24" height="41" stroke="#E2EBD3" stroke-width="6"/>
<rect x="822.5" y="669.38" width="24" height="22" fill="#2D5551"/>
<rect x="822.5" y="669.38" width="24" height="22" stroke="#E2EBD3" stroke-width="6"/>
<rect x="846.5" y="660.38" width="24" height="31" fill="#2D5551"/>
<rect x="846.5" y="660.38" width="24" height="31" stroke="#E2EBD3" stroke-width="6"/>
<rect x="870.5" y="646.38" width="24" height="45" fill="#2D5551"/>
<rect x="870.5" y="646.38" width="24" height="45" stroke="#E2EBD3" stroke-width="6"/>
<rect x="894.5" y="621.38" width="24" height="70" fill="#2D5551"/>
<rect x="894.5" y="621.38" width="24" height="70" stroke="#E2EBD3" stroke-width="6"/>
<rect x="918.5" y="640.38" width="24" height="51" fill="#2D5551"/>
<rect x="918.5" y="640.38" width="24" height="51" stroke="#E2EBD3" stroke-width="6"/>
<rect x="942.5" y="654.38" width="24" height="37" fill="#2D5551"/>
<rect x="942.5" y="654.38" width="24" height="37" stroke="#E2EBD3" stroke-width="6"/>
<rect x="966.5" y="605.38" width="24" height="86" fill="#2D5551"/>
<rect x="966.5" y="605.38" width="24" height="86" stroke="#E2EBD3" stroke-width="6"/>
<rect x="990.5" y="551.38" width="24" height="140" fill="#2D5551"/>
<rect x="990.5" y="551.38" width="24" height="140" stroke="#E2EBD3" stroke-width="6"/>
<rect x="1014.5" y="632.38" width="24" height="59" fill="#2D5551"/>
<rect x="1014.5" y="632.38" width="24" height="59" stroke="#E2EBD3" stroke-width="6"/>
<rect x="1038.5" y="554.38" width="24" height="137" fill="#2D5551"/>
<rect x="1038.5" y="554.38" width="24" height="137" stroke="#E2EBD3" stroke-width="6"/>
<rect x="1062.5" y="575.38" width="24" height="116" fill="#2D5551"/>
<rect x="1062.5" y="575.38" width="24" height="116" stroke="#E2EBD3" stroke-width="6"/>
<rect x="1086.5" y="644.38" width="24" height="47" fill="#2D5551"/>
<rect x="1086.5" y="644.38" width="24" height="47" stroke="#E2EBD3" stroke-width="6"/>
<rect x="1110.5" y="541.38" width="24" height="150" fill="#2D5551"/>
<rect x="1110.5" y="541.38" width="24" height="150" stroke="#E2EBD3" stroke-width="6"/>
<rect x="1134.5" y="551.38" width="24" height="140" fill="#2D5551"/>
<rect x="1134.5" y="551.38" width="24" height="140" stroke="#E2EBD3" stroke-width="6"/>
<rect x="1158.5" y="639.38" width="24" height="52" fill="#2D5551"/>
<rect x="1158.5" y="639.38" width="24" height="52" stroke="#E2EBD3" stroke-width="6"/>
<rect x="1182.5" y="655.38" width="24" height="36" fill="#2D5551"/>
<rect x="1182.5" y="655.38" width="24" height="36" stroke="#E2EBD3" stroke-width="6"/>
<rect x="1206.5" y="578.38" width="24" height="113" fill="#2D5551"/>
<rect x="1206.5" y="578.38" width="24" height="113" stroke="#E2EBD3" stroke-width="6"/>
<rect x="1230.5" y="551.38" width="24" height="140" fill="#2D5551"/>
<rect x="1230.5" y="551.38" width="24" height="140" stroke="#E2EBD3" stroke-width="6"/>
<rect x="1254.5" y="438.38" width="24" height="253" fill="#2D5551"/>
<rect x="1254.5" y="438.38" width="24" height="253" stroke="#E2EBD3" stroke-width="6"/>
<rect x="1278.5" y="511.38" width="24" height="180" fill="#2D5551"/>
<rect x="1278.5" y="511.38" width="24" height="180" stroke="#E2EBD3" stroke-width="6"/>
<rect x="1302.5" y="393.38" width="24" height="298" fill="#2D5551"/>
<rect x="1302.5" y="393.38" width="24" height="298" stroke="#E2EBD3" stroke-width="6"/>
<rect x="1326.5" y="380.38" width="24" height="311" fill="#2D5551"/>
<rect x="1326.5" y="380.38" width="24" height="311" stroke="#E2EBD3" stroke-width="6"/>
<rect x="1350.5" y="513.38" width="24" height="178" fill="#2D5551"/>
<rect x="1350.5" y="513.38" width="24" height="178" stroke="#E2EBD3" stroke-width="6"/>
<rect x="1374.5" y="412.38" width="24" height="279" fill="#2D5551"/>
<rect x="1374.5" y="412.38" width="24" height="279" stroke="#E2EBD3" stroke-width="6"/>
<rect x="1398.5" y="403.38" width="24" height="288" fill="#2D5551"/>
<rect x="1398.5" y="403.38" width="24" height="288" stroke="#E2EBD3" stroke-width="6"/>
<rect x="1422.5" y="479.38" width="24" height="212" fill="#2D5551"/>
<rect x="1422.5" y="479.38" width="24" height="212" stroke="#E2EBD3" stroke-width="6"/>
<rect x="1542.5" y="479.38" width="24" height="212" fill="#2D5551"/>
<rect x="1542.5" y="479.38" width="24" height="212" stroke="#E2EBD3" stroke-width="6"/>
<rect x="1446.5" y="427.38" width="24" height="264" fill="#2D5551"/>
<rect x="1446.5" y="427.38" width="24" height="264" stroke="#E2EBD3" stroke-width="6"/>
<rect x="1566.5" y="427.38" width="24" height="264" fill="#2D5551"/>
<rect x="1566.5" y="427.38" width="24" height="264" stroke="#E2EBD3" stroke-width="6"/>
<rect x="1470.5" y="368.38" width="24" height="323" fill="#2D5551"/>
<rect x="1470.5" y="368.38" width="24" height="323" stroke="#E2EBD3" stroke-width="6"/>
<rect x="1590.5" y="368.38" width="24" height="323" fill="#2D5551"/>
<rect x="1590.5" y="368.38" width="24" height="323" stroke="#E2EBD3" stroke-width="6"/>
<rect x="1494.5" y="422.38" width="24" height="269" fill="#2D5551"/>
<rect x="1494.5" y="422.38" width="24" height="269" stroke="#E2EBD3" stroke-width="6"/>
<rect x="1614.5" y="422.38" width="24" height="269" fill="#2D5551"/>
<rect x="1614.5" y="422.38" width="24" height="269" stroke="#E2EBD3" stroke-width="6"/>
<rect x="1518.5" y="377.38" width="24" height="314" fill="#2D5551"/>
<rect x="1518.5" y="377.38" width="24" height="314" stroke="#E2EBD3" stroke-width="6"/>
<rect x="1638.5" y="377.38" width="24" height="314" fill="#2D5551"/>
<rect x="1638.5" y="377.38" width="24" height="314" stroke="#E2EBD3" stroke-width="6"/>
</g>
</g>
<rect x="0.5" y="0.5" width="1679" height="751" stroke="#CFD7C1"/>
<defs>
<clipPath id="clip0_1_249">
<rect width="1680" height="752" fill="white"/>
</clipPath>
<clipPath id="clip1_1_249">
<rect width="1598" height="617" fill="white" transform="translate(81.5 71.3799)"/>
</clipPath>
</defs>
</svg>
