<svg width="85" height="75" viewBox="0 0 85 75" fill="none" xmlns="http://www.w3.org/2000/svg">
<g clip-path="url(#clip0_1_168)">
<path d="M55.0722 43.729V32.5761H85.5129V49.4825C85.5129 61.8749 72.4546 70.2837 56.6604 70.2837C37.4252 70.2837 23.5723 58.5111 23.5723 37.0019C23.5723 15.4926 37.4252 3.72003 56.6604 3.72003C71.9251 3.72003 81.4544 10.8013 85.3366 20.3609L70.5135 24.2556C68.8371 21.3346 65.1312 16.6433 56.6604 16.6433C46.6898 16.6433 39.8075 24.3441 39.8075 37.0019C39.8075 49.6596 46.6898 57.3604 56.6604 57.3604C63.8074 57.3604 69.2782 53.6428 69.2782 49.6596V43.729H55.0722Z" fill="#2D5551"/>
<path d="M1.41602 68.8671V5.13605H17.6512V68.8671H1.41602Z" fill="#2D5551"/>
</g>
<defs>
<clipPath id="clip0_1_168">
<rect width="85" height="74" fill="white" transform="translate(0 0.189758)"/>
</clipPath>
</defs>
</svg>
