<svg width="209" height="42" viewBox="0 0 209 42" fill="none"
    xmlns="http://www.w3.org/2000/svg">
    <defs>
        <clipPath id="revealClipPath">
            <rect x="0" y="0" width="0" height="42">
                <animate attributeName="width" from="0" to="209" dur="2s" fill="freeze" />
            </rect>
        </clipPath>
    </defs>
    <g clip-path="url(#clip0_1_92)">
        <path d="M29.9649 25.0704V18.8935H46.8009V28.2569C46.8009 35.1203 39.5787 39.7774 30.8433 39.7774C20.2049 39.7774 12.5432 33.2573 12.5432 21.3446C12.5432 9.43197 20.2049 2.91187 30.8433 2.91187C39.2858 2.91187 44.5562 6.83374 46.7034 12.1283L38.5051 14.2853C37.5779 12.6675 35.5283 10.0693 30.8433 10.0693C25.3289 10.0693 21.5225 14.3343 21.5225 21.3446C21.5225 28.355 25.3289 32.62 30.8433 32.62C34.7962 32.62 37.8219 30.561 37.8219 28.355V25.0704H29.9649Z" fill="#ffffff"/>
        <path d="M0.288574 38.993V3.69629H9.26782V38.993H0.288574Z" fill="#ffffff"/>
        <path clip-path="url(#revealClipPath)" fill-rule="evenodd" clip-rule="evenodd" d="M54.8411 0.50293C52.8194 0.50293 51.1804 2.1419 51.1804 4.16365V37.4915C51.1804 39.5133 52.8194 41.1523 54.8411 41.1523H172.112C172.119 41.1523 172.125 41.1581 172.125 41.165C172.125 41.1719 172.131 41.1778 172.138 41.1778H190.428H190.429H207.36C208.118 41.1778 208.732 40.5634 208.732 39.8051V24.247C208.732 23.4889 208.118 22.8743 207.36 22.8743H192.066C191.308 22.8743 190.693 22.2596 190.693 21.5015V9.90523C190.693 9.14708 190.079 8.53246 189.321 8.53246H179.018C178.26 8.53246 177.645 7.91783 177.645 7.15968V1.8757C177.645 1.11754 177.031 0.50293 176.273 0.50293H54.8411Z" fill="#2D5551"/>
        <path d="M74.3644 7.17456C76.7493 7.17456 78.893 7.53588 80.7959 8.25855C82.6992 8.98118 84.2044 10.0531 85.3128 11.4744C86.445 12.8715 87.011 14.5818 87.011 16.6052H79.3868C79.3868 15.5694 78.9292 14.7384 78.0138 14.1121C77.0983 13.4617 75.9903 13.1365 74.6897 13.1365C72.8106 13.1365 71.3894 13.6423 70.426 14.6541C69.4624 15.6417 68.9807 17.0509 68.9807 18.8816V21.1941C68.9807 23.0249 69.4624 24.4461 70.426 25.4578C71.3894 26.4454 72.8106 26.9392 74.6897 26.9392C75.9903 26.9392 77.0983 26.6381 78.0138 26.0359C78.9292 25.4096 79.3868 24.6147 79.3868 23.6512H73.7501V18.5925H87.011V32.4676H82.8917L82.0969 30.0105C79.8326 31.9376 76.8696 32.9012 73.2082 32.9012C69.0889 32.9012 65.9935 31.8292 63.9218 29.6853C61.8505 27.5173 60.8145 24.3015 60.8145 20.0378C60.8145 15.8224 61.9828 12.6306 64.3194 10.4627C66.6802 8.27057 70.0284 7.17456 74.3644 7.17456ZM103.054 12.9197C103.608 12.9197 104.102 12.9919 104.536 13.1365C104.969 13.2569 105.186 13.3292 105.186 13.3533V19.3875H102.874C101.38 19.3875 100.296 19.7729 99.6215 20.5437C98.9713 21.3146 98.6461 22.4587 98.6461 23.9763V32.4676H91.4556V13.3894H97.3451L97.8151 16.28C98.2485 15.172 98.9352 14.3409 99.8744 13.7869C100.814 13.2087 101.874 12.9197 103.054 12.9197ZM117.94 12.9558C121.432 12.9558 124.094 13.7748 125.925 15.4128C127.78 17.0509 128.707 19.5561 128.707 22.9285V24.157H114.398C114.398 25.5301 114.699 26.5659 115.302 27.2644C115.928 27.963 116.904 28.3123 118.229 28.3123C119.433 28.3123 120.312 28.0593 120.866 27.5535C121.444 27.0476 121.734 26.3731 121.734 25.5301H128.707C128.707 27.8426 127.828 29.6492 126.07 30.95C124.311 32.2508 121.746 32.9012 118.373 32.9012C114.832 32.9012 112.086 32.0821 110.135 30.4441C108.184 28.782 107.208 26.2768 107.208 22.9285C107.208 19.6524 108.159 17.1713 110.063 15.4851C111.966 13.7989 114.591 12.9558 117.94 12.9558ZM118.229 17.5447C115.964 17.5447 114.699 18.6166 114.435 20.7605H121.444C121.444 19.7729 121.155 18.99 120.577 18.4119C120.023 17.8337 119.24 17.5447 118.229 17.5447ZM142.04 12.9558C145.533 12.9558 148.194 13.7748 150.025 15.4128C151.88 17.0509 152.807 19.5561 152.807 22.9285V24.157H138.499C138.499 25.5301 138.8 26.5659 139.402 27.2644C140.029 27.963 141.004 28.3123 142.329 28.3123C143.534 28.3123 144.412 28.0593 144.966 27.5535C145.545 27.0476 145.834 26.3731 145.834 25.5301H152.807C152.807 27.8426 151.928 29.6492 150.17 30.95C148.411 32.2508 145.846 32.9012 142.473 32.9012C138.933 32.9012 136.186 32.0821 134.235 30.4441C132.284 28.782 131.308 26.2768 131.308 22.9285C131.308 19.6524 132.26 17.1713 134.163 15.4851C136.066 13.7989 138.691 12.9558 142.04 12.9558ZM142.329 17.5447C140.065 17.5447 138.8 18.6166 138.535 20.7605H145.545C145.545 19.7729 145.256 18.99 144.678 18.4119C144.123 17.8337 143.341 17.5447 142.329 17.5447ZM169.428 12.9558C171.644 12.9558 173.306 13.5701 174.415 14.7986C175.523 16.0271 176.077 17.7976 176.077 20.1101V32.4676H168.886V20.9773C168.886 20.1583 168.67 19.5079 168.236 19.0261C167.827 18.5203 167.236 18.2673 166.465 18.2673C165.574 18.2673 164.851 18.5564 164.297 19.1345C163.743 19.7127 163.466 20.4233 163.466 21.2664V32.4676H156.276V13.3894H162.165L162.635 16.28C163.382 15.2683 164.358 14.4614 165.562 13.8591C166.79 13.2569 168.079 12.9558 169.428 12.9558Z" fill="#B9FF78"/>
    </g>
    <defs>
        <clipPath id="clip0_1_92">
            <rect width="208.79" height="41" fill="white" transform="translate(0 0.5)"/>
        </clipPath>
    </defs>
</svg>
