<svg width="24" height="24" viewBox="0 0 24 24" fill="none" xmlns="http://www.w3.org/2000/svg">
<path d="M4.79903 5.99961H0.935031C0.491031 5.99961 0.047031 6.38361 0.107031 7.00761L1.97903 18.9956C1.97903 18.9956 4.19903 10.1636 4.63103 8.03961C4.76303 7.40361 5.36303 7.19961 5.80703 7.19961H11.999C11.999 7.19961 11.159 4.70361 11.075 4.42761C10.931 3.89961 10.667 3.59961 10.139 3.59961H6.16703C5.73503 3.59961 5.32703 3.87561 5.20703 4.36761C5.09903 4.84761 4.79903 5.99961 4.79903 5.99961ZM10.655 5.99961H5.85503C5.85503 5.99961 6.35903 4.79961 6.89903 4.79961H9.45503C10.031 4.79961 10.655 5.99961 10.655 5.99961ZM3.20303 19.4996C2.83103 20.0636 2.29103 20.3996 1.69103 20.3996H20.567C21.215 20.3996 21.671 20.0276 21.803 19.4036C22.331 16.7756 23.819 9.27561 23.819 9.27561C23.903 8.67561 23.459 8.39961 23.075 8.39961H19.199V6.63561C19.199 6.44361 18.887 5.99961 18.407 5.99961H13.895C13.271 5.99961 12.851 6.69561 12.851 6.69561L11.999 8.39961H6.70703C6.32303 8.39961 5.95103 8.62761 5.87903 8.99961C5.87903 8.99961 3.97103 17.0396 3.81503 17.7956C3.73103 18.2396 3.55103 18.9836 3.20303 19.4996ZM18.455 8.39961H13.199C13.199 8.39961 13.895 7.19961 14.555 7.19961H17.303C18.155 7.19961 18.455 8.39961 18.455 8.39961Z" fill="#E2EBD3"/>
</svg>
