<svg width="36" height="36" viewBox="0 0 36 36" fill="none" xmlns="http://www.w3.org/2000/svg">
<path fill-rule="evenodd" clip-rule="evenodd" d="M7.99119 11.898C6.8732 10.4482 6.31635 8.6439 6.42039 6.81728C6.43726 6.60212 6.60883 6.43196 6.82399 6.41929C7.72961 6.36163 8.63808 6.47273 9.50292 6.74695C10.3748 7.00289 11.1904 7.42617 11.9034 7.99148C12.0103 8.0843 12.0665 8.22352 12.0525 8.36416C12.0384 8.50478 11.9555 8.62994 11.8317 8.69744C10.5337 9.45824 9.4537 10.5397 8.69434 11.839C8.62403 11.96 8.49746 12.0387 8.35825 12.05C8.21762 12.0612 8.07981 12.005 7.98982 11.8967L7.99119 11.898ZM15.2363 6.61315C15.4697 4.79485 16.3528 3.12281 17.7197 1.90215C17.8828 1.76434 18.1233 1.76574 18.285 1.90777C18.9656 2.50686 19.531 3.22827 19.9486 4.03403C20.3846 4.8328 20.6616 5.70887 20.7657 6.61313C20.7769 6.75657 20.715 6.89579 20.6011 6.9858C20.4872 7.0744 20.3367 7.10111 20.2003 7.05611C18.7491 6.67782 17.2247 6.68063 15.7748 7.06315C15.6398 7.0983 15.4964 7.06596 15.3895 6.97596C15.2812 6.88596 15.225 6.75095 15.2348 6.61174L15.2363 6.61315ZM24.7749 11.2255C22.9777 9.42971 20.542 8.42001 18.0011 8.42001C15.4614 8.42001 13.0244 9.42971 11.2287 11.2255C9.43149 13.0227 8.4232 15.4584 8.4232 17.9993C8.4232 20.5402 9.43149 22.976 11.2287 24.7732C13.0245 26.569 15.4616 27.5787 18.0011 27.5787C20.5422 27.5787 22.9778 26.569 24.7749 24.7732C26.5707 22.976 27.5804 20.5402 27.5804 17.9993C27.5804 15.4584 26.5707 13.0227 24.7749 11.2255ZM19.7755 11.8021L18.5619 16.4569L21.8892 17.3246C21.9398 17.3387 21.9792 17.3767 21.996 17.4259C22.0129 17.4751 22.0031 17.5299 21.9693 17.5707L16.4919 24.3363C16.4455 24.3911 16.3667 24.408 16.302 24.3742C16.2387 24.3405 16.2064 24.2659 16.2261 24.1956L17.4397 19.5422L14.1125 18.6746C14.0618 18.6605 14.0211 18.6225 14.0056 18.5733C13.9887 18.5241 14 18.4692 14.0323 18.4285L19.5098 11.6629C19.5562 11.6081 19.6349 11.5912 19.6996 11.6249C19.7629 11.6587 19.7952 11.7332 19.7755 11.8035V11.8021ZM24.1028 7.98534C25.5526 6.86876 27.3569 6.3119 29.1835 6.41594C29.3987 6.43141 29.5688 6.60438 29.5815 6.81814C29.6392 7.72376 29.5281 8.63223 29.2538 9.49707C28.9979 10.3718 28.5746 11.1874 28.0093 11.9018C27.9165 12.0087 27.7773 12.0649 27.6366 12.0508C27.496 12.0368 27.3708 11.9538 27.3033 11.8301C26.5426 10.5321 25.4611 9.45206 24.1617 8.69271C24.0408 8.62239 23.962 8.49583 23.9508 8.35661C23.9395 8.21599 23.9958 8.07817 24.1041 7.98818L24.1028 7.98534ZM29.3876 15.2347C31.2059 15.4682 32.878 16.3513 34.0986 17.7182C34.2365 17.8813 34.235 18.1218 34.093 18.2835C33.4939 18.9641 32.7725 19.5294 31.9668 19.9471C31.168 20.383 30.2919 20.6601 29.3877 20.7641C29.2442 20.7754 29.105 20.7135 29.015 20.5996C28.9264 20.4857 28.8997 20.3352 28.9447 20.1988C29.323 18.7476 29.3202 17.2232 28.9376 15.7733C28.9025 15.6383 28.9348 15.4948 29.0248 15.388C29.1148 15.2797 29.2498 15.2234 29.389 15.2333L29.3876 15.2347ZM28.0109 24.1013C29.1289 25.5511 29.6858 27.3554 29.5817 29.182C29.5648 29.3971 29.3933 29.5673 29.1781 29.58C28.2725 29.6376 27.364 29.5265 26.4992 29.2523C25.6273 28.9964 24.8117 28.5731 24.0987 28.0078C23.9918 27.915 23.9356 27.7757 23.9496 27.6351C23.9637 27.4945 24.0466 27.3693 24.1704 27.3018C25.4684 26.541 26.5484 25.4596 27.3078 24.1602C27.3781 24.0393 27.5046 23.9605 27.6439 23.9493C27.7845 23.938 27.9223 23.9943 28.0123 24.1025L28.0109 24.1013ZM20.7658 29.3861C20.5324 31.2044 19.6493 32.8764 18.2824 34.0971C18.1193 34.2349 17.8788 34.2335 17.7171 34.0915C17.0365 33.4924 16.4711 32.771 16.0535 31.9652C15.6175 31.1665 15.3405 30.2904 15.2364 29.3861C15.2252 29.2427 15.2871 29.1035 15.401 29.0135C15.5149 28.9249 15.6654 28.8981 15.8018 28.9431C17.253 29.3214 18.7774 29.3186 20.2273 28.9361C20.3623 28.901 20.5057 28.9333 20.6126 29.0233C20.7209 29.1133 20.7771 29.2483 20.7673 29.3875L20.7658 29.3861ZM11.8993 28.0094C10.4495 29.1274 8.64521 29.6842 6.81859 29.5802C6.60343 29.5633 6.43328 29.3917 6.42061 29.1766C6.36295 28.271 6.47404 27.3625 6.74827 26.4977C7.00421 25.6258 7.42748 24.8101 7.9928 24.0971C8.08561 23.9903 8.22483 23.934 8.36547 23.9481C8.5061 23.9621 8.63126 24.0451 8.69876 24.1689C9.45955 25.4669 10.541 26.5469 11.8404 27.3062C11.9613 27.3765 12.0401 27.5031 12.0513 27.6423C12.0626 27.7829 12.0063 27.9208 11.898 28.0107L11.8993 28.0094ZM6.61447 20.7643C4.79616 20.5309 3.12413 19.6477 1.90346 18.2809C1.76424 18.1163 1.76705 17.8759 1.90909 17.7141C2.50817 17.0335 3.22958 16.4696 4.03534 16.0505C4.83412 15.616 5.71018 15.3375 6.61444 15.2349C6.75788 15.2237 6.8971 15.2855 6.98712 15.3994C7.07571 15.5134 7.10243 15.6638 7.05743 15.8002C6.67914 17.2515 6.68194 18.7759 7.06446 20.2258C7.09962 20.3608 7.06727 20.5042 6.97727 20.6111C6.88727 20.7193 6.75227 20.7756 6.61305 20.7658L6.61447 20.7643Z" fill="#2D5551"/>
</svg>
