<svg width="23" height="34" viewBox="0 0 23 34" fill="none" xmlns="http://www.w3.org/2000/svg">
<path d="M15.2615 12.0614C13.1743 12.0614 11.2887 12.273 9.93607 12.6131C9.5237 11.9309 8.79207 11.4642 7.94861 11.4167C7.57978 10.0601 6.80461 8.26647 5.72782 6.4016C3.66917 2.83803 1.29016 0.358157 0.412151 0.866333C-0.465861 1.37261 0.489296 4.67317 2.54795 8.23679C3.59506 10.0522 4.72621 11.5848 5.70016 12.5855C5.46285 12.9671 5.32545 13.4161 5.32545 13.8966C5.32545 14.3475 5.44506 14.7687 5.65473 15.1326C4.69166 16.1352 3.57823 17.6481 2.54801 19.4343C0.489359 22.998 -0.465798 26.2985 0.412215 26.8048C1.29029 27.313 3.66923 24.8351 5.72788 21.2715C6.77202 19.4619 7.53143 17.7212 7.91304 16.3785C8.77232 16.3429 9.51782 15.8722 9.93607 15.1821C11.2888 15.5223 13.1743 15.7338 15.2615 15.7338C19.3768 15.7338 22.7129 14.9111 22.7129 13.8967C22.7129 12.8841 19.3769 12.0614 15.2615 12.0614Z" fill="#2D5551"/>
<path d="M8.99794 17.6109C8.53418 18.9441 7.82033 20.465 6.94422 21.9838C6.48939 22.771 6.00684 23.5282 5.5174 24.2244L5.2168 33.2006H10.1854L9.65344 17.332C9.44485 17.4447 9.22538 17.5397 8.99794 17.6109Z" fill="#2D5551"/>
</svg>
